# xmcd
#
# Track frame offsets:
# 150
# 20110
# 40820
# 60657
# 78070
# 100642
# 120090
# 141310
# 163370
# 182902
# 200777
# 220667
# 239505
# 258095
# 275527
# 291370
# 309135
# 325312
#
# Disc length: 4563 seconds
#
#
# Revision: 15
# Processed by: cddbd v1.5.1PL2 Copyright (c) Steve Scherf et al.
# Submitted via: FreeRIP 2.945 
#
DISCID=0411d112
DTITLE=Mariah Carey - Mariah Carey #1's
DYEAR=1995
DGENRE=Pop Romântico
TTITLE0=Mariah Carey - Sweetheart
TTITLE1=Mariah Carey and Withney Houston - When You Believe
TTITLE2=Mariah Carey - Whenever You Call
TTITLE3=Mariah Carey - My All
TTITLE4=Mariah Carey - Honey
TTITLE5=Mariah Carey - Always Be My Baby
TTITLE6=Mariah Carey and Boys II Men - One Sweet Day
TTITLE7=Mariah Carey and O.D.B. - Fantasy
TTITLE8=Mariah Carey - Hero
TTITLE9=Mariah Carey - Dreamlover
TTITLE10=Mariah Carey and Trey Lorenz - I'll Be There
TTITLE11=Mariah Carey - Emotions
TTITLE12=Mariah Carey - Someday
TTITLE13=Mariah Carey - Love Takes Time
TTITLE14=Mariah Carey - Vision Of Love
TTITLE15=Mariah Carey - I Still Believe
TTITLE16=Mariah Carey - Without You
TTITLE17=Mariah Carey - Do You Know Where You're Going To
EXTD=
EXTT0=
EXTT1=(From The Price Of Egypt)
EXTT2=
EXTT3=
EXTT4=
EXTT5=
EXTT6=
EXTT7=
EXTT8=
EXTT9=
EXTT10=
EXTT11=
EXTT12=
EXTT13=
EXTT14=
EXTT15=
EXTT16=
EXTT17=(Theme From Mahogany)
PLAYORDER=
